# xmcd
#
# Track frame offsets:
#	150
#	18278
#	35583
#	55507
#	88193
#	105609
#	128542
#	146571
#	166718
#	179843
#	214145
#	241202
#	269095
#	291248
#	315686
#	334161
#
# Disc length: 4781 seconds
#
# Revision: 2
# Processed by: cddbd v1.5.1PL0 Copyright (c) Steve Scherf et al.
# Submitted via: EasyCDDAExtractor 5.1.0
#
DISCID=ea12ab10
DTITLE=Mötley Crue - Gund Arena Cleveland 22-02-05 Disc 1
DYEAR=2005
DGENRE=Hard Rock
TTITLE0=Intro
TTITLE1=Shout At The Devil
TTITLE2=Too Fast For Love
TTITLE3=10 Seconds To Love
TTITLE4=Red Hot
TTITLE5=On With The Show
TTITLE6=Too Young To Fall In Love
TTITLE7=Looks That Kill
TTITLE8=Louder Than Hell
TTITLE9=Live Wire
TTITLE10=Girls Girls Girls
TTITLE11=Wild Side
TTITLE12=Don't Go Away Mad (Just Go Away)
TTITLE13=Primal Scream
TTITLE14=Glitter and Without You
TTITLE15=Home Sweet Home
EXTD=
EXTT0=
EXTT1=
EXTT2=
EXTT3=
EXTT4=
EXTT5=
EXTT6=
EXTT7=
EXTT8=
EXTT9=
EXTT10=
EXTT11=
EXTT12=
EXTT13=
EXTT14=
EXTT15=
PLAYORDER=
